<svg width="24" height="24" viewBox="0 0 24 24" fill="none" xmlns="http://www.w3.org/2000/svg">
<g clip-path="url(#clip0_2882_23847)">
<rect width="24" height="24" rx="12" fill="white"/>
<path d="M13.6419 -3.43432C21.4576 -2.64619 27.5 3.98729 27.5 12C27.5 20.5381 20.5381 27.5 12 27.5C3.46186 27.5 -3.5 20.5381 -3.5 12C-3.5 3.46186 3.46186 -3.5 12 -3.5C12.5254 -3.5 13.1165 -3.5 13.6419 -3.43432ZM14.4301 26.3835C22.3771 25.0699 27.7627 17.5169 26.4492 9.50424C25.3326 2.87076 19.947 -1.98941 13.5763 -2.64619C12.2627 -2.77754 10.9492 -2.77754 9.63559 -2.51483C8.05932 -2.25212 6.54873 -1.7267 5.23517 -1.00424C12.2627 1.36017 16.0064 4.97246 16.2691 8.7161C16.4004 11.0148 15.3496 12.6568 13.9047 14.036L23.822 13.3136C24.0847 13.3136 24.2161 13.642 23.822 13.7076L0.177965 20.5381C2.60805 23.8877 6.3517 26.0551 10.4894 26.5148C11.7373 26.6462 13.1165 26.6462 14.4301 26.3835ZM7.92797 12.3284C9.24153 7.46822 7.73093 2.34534 4.18432 -0.347458C-0.610169 2.67373 -3.43432 8.38771 -2.44915 14.4301C-2.12076 16.4004 -1.3983 18.2394 -0.413135 19.8157C3.39619 18.7648 6.74576 16.7288 7.92797 12.3284Z" fill="white"/>
<path d="M26.4492 9.5696C27.7628 17.5166 22.4428 25.0696 14.4301 26.4488C13.1166 26.6459 11.7373 26.7115 10.4895 26.5802C6.35174 26.1204 2.60809 23.9531 0.178008 20.6035L23.8221 13.773C24.1505 13.7073 24.0848 13.3789 23.8221 13.3789L13.9047 14.0357C15.2839 12.6565 16.4005 11.0145 16.2691 8.71578C16.0064 5.03782 12.2628 1.35985 5.23522 -1.00456C6.61445 -1.72701 8.05937 -2.25244 9.63564 -2.51515C10.9492 -2.71218 12.3284 -2.77786 13.5763 -2.6465C19.8814 -1.92405 25.3327 2.93612 26.4492 9.5696ZM-2.44911 14.4298C-2.12072 16.4001 -1.39826 18.2391 -0.413092 19.8154C3.33055 18.7645 6.68013 16.7942 7.86233 12.3281C9.17589 7.4679 7.6653 2.34502 4.11869 -0.347776C-0.610127 2.67341 -3.43428 8.38739 -2.44911 14.4298Z" fill="#C90019"/>
</g>
<defs>
<clipPath id="clip0_2882_23847">
<rect width="24" height="24" rx="12" fill="white"/>
</clipPath>
</defs>
</svg>
